<?xml version="1.0" encoding="UTF-8" standalone="no"?>
<svg
   xmlns:dc="http://purl.org/dc/elements/1.1/"
   xmlns:cc="http://creativecommons.org/ns#"
   xmlns:rdf="http://www.w3.org/1999/02/22-rdf-syntax-ns#"
   xmlns:svg="http://www.w3.org/2000/svg"
   xmlns="http://www.w3.org/2000/svg"
   xmlns:sodipodi="http://sodipodi.sourceforge.net/DTD/sodipodi-0.dtd"
   xmlns:inkscape="http://www.inkscape.org/namespaces/inkscape"
   viewBox="0 0 400.00001 135.82072"
   height="135.82072"
   width="400"
   xml:space="preserve"
   version="1.1"
   id="svg2"
   inkscape:version="0.91 r13725"
   sodipodi:docname="logo_uam.svg"><sodipodi:namedview
     pagecolor="#ffffff"
     bordercolor="#666666"
     borderopacity="1"
     objecttolerance="10"
     gridtolerance="10"
     guidetolerance="10"
     inkscape:pageopacity="0"
     inkscape:pageshadow="2"
     inkscape:window-width="956"
     inkscape:window-height="1041"
     id="namedview3469"
     showgrid="false"
     inkscape:zoom="2.01"
     inkscape:cx="200"
     inkscape:cy="67.910362"
     inkscape:window-x="960"
     inkscape:window-y="18"
     inkscape:window-maximized="0"
     inkscape:current-layer="svg2" /><metadata
     id="metadata8"><rdf:RDF><cc:Work
         rdf:about=""><dc:format>image/svg+xml</dc:format><dc:type
           rdf:resource="http://purl.org/dc/dcmitype/StillImage" /><dc:title></dc:title></cc:Work></rdf:RDF></metadata><defs
     id="defs6" /><g
     transform="matrix(4.6932942,0,0,-4.6932942,-0.00163143,135.82072)"
     id="g10"><g
       transform="scale(0.1,0.1)"
       id="g12"><path
         id="path14"
         style="fill:none;stroke:#17ae65;stroke-width:2.20094991;stroke-linecap:butt;stroke-linejoin:miter;stroke-miterlimit:3.86370993;stroke-dasharray:none;stroke-opacity:1"
         d="m 551.688,262.43 -24.844,24.215 35.222,0 23.106,-24.215 -33.484,0 0,0 z"
         inkscape:connector-curvature="0" /><path
         id="path16"
         style="fill:none;stroke:#17ae65;stroke-width:1.10047996;stroke-linecap:butt;stroke-linejoin:miter;stroke-miterlimit:3.86370993;stroke-dasharray:none;stroke-opacity:1"
         d="m 492.801,159.516 -29.172,24.218 28.613,0 25.324,-24.218 -24.765,0 0,0 z m 75.39,0 -26.964,24.218 21.464,0 23.106,-24.218 -17.606,0 0,0 z"
         inkscape:connector-curvature="0" /><path
         id="path18"
         style="fill:none;stroke:#17ae65;stroke-width:2.20094991;stroke-linecap:butt;stroke-linejoin:miter;stroke-miterlimit:3.86370993;stroke-dasharray:none;stroke-opacity:1"
         d="m 464.188,286.645 0,-102.911"
         inkscape:connector-curvature="0" /><path
         id="path20"
         style="fill:none;stroke:#17ae65;stroke-width:1.10047996;stroke-linecap:butt;stroke-linejoin:miter;stroke-miterlimit:3.86370993;stroke-dasharray:none;stroke-opacity:1"
         d="m 524.168,287.191 -11.008,-44.574 -12.109,44.028 m 34.121,-127.129 -26.961,24.218 18.711,0 23.113,-24.218 -14.863,0 0,0 z m -27.52,24.765 -17.605,66.594 28.066,-25.867 m 20.907,-7.703 -25.86,25.863 m 13.762,-58.887 14.851,59.434 25.325,-27.512"
         inkscape:connector-curvature="0" /><path
         id="path22"
         style="fill:none;stroke:#17ae65;stroke-width:2.20094991;stroke-linecap:butt;stroke-linejoin:miter;stroke-miterlimit:3.86370993;stroke-dasharray:none;stroke-opacity:1"
         d="m 561.043,286.645 0,-102.364 m -19.27,57.789 0,-57.789 M 492,159.516 l 0,102.664 33.359,0 13.739,-42.528 12.675,42.778 34.024,0 0,-102.973 -18.574,0 0,57.578 -17.657,-57.578 -15.046,0 -17.012,66.082 0,-66.023 -25.508,0 0,0 z m 0.801,102.914 -26.973,24.215 35.223,0 23.117,-24.215 -31.367,0 0,0 z"
         inkscape:connector-curvature="0" /><path
         id="path24"
         style="fill:#17ae65;fill-opacity:1;fill-rule:evenodd;stroke:none"
         d="m 412.859,207.691 31.414,0 -15.703,34.348 -15.711,-34.348 0,0 z m -45.773,-49.082 62.461,129.571 62.824,-129.571 -21.594,0 -17.664,31.407 -47.121,0 -16.687,-31.407 -22.219,0 0,0"
         inkscape:connector-curvature="0" /><path
         id="path26"
         style="fill:none;stroke:#17ae65;stroke-width:1.10047996;stroke-linecap:butt;stroke-linejoin:miter;stroke-miterlimit:3.86370993;stroke-dasharray:none;stroke-opacity:1"
         d="m 412.859,207.691 31.414,0 -15.703,34.348 -15.711,-34.348 0,0 z m -45.773,-49.082 62.461,129.571 62.824,-129.571 -21.594,0 -17.664,31.407 -47.121,0 -16.687,-31.407 -22.219,0 0,0 z"
         inkscape:connector-curvature="0" /><path
         id="path28"
         style="fill:#17ae65;fill-opacity:1;fill-rule:nonzero;stroke:none"
         d="m 319.285,281.488 c -12.84,-3.64 -17.433,-12.519 -17.433,-22.187 l 0,-61.817 c 0,-19.011 16.64,-34.863 30.113,-34.863 l 12.68,0 c 23.613,0 30.117,23.828 30.117,33.281 l 0,63.399 c 0,5.234 -3.172,18.074 -15.848,22.187 l 33.281,0 c -11.886,-3.324 -15.851,-11.883 -15.851,-22.187 l 0,-66.563 c 0,-19.343 -19.492,-33.289 -33.285,-33.289 l -25.356,0 c -12.84,0 -33.289,10.469 -33.289,28.535 l 0,69.735 c 0,8.719 -2.375,19.336 -15.848,23.769 l 50.719,0 0,0"
         inkscape:connector-curvature="0" /><path
         id="path30"
         style="fill:none;stroke:#17ae65;stroke-width:1.10047996;stroke-linecap:butt;stroke-linejoin:miter;stroke-miterlimit:3.86370993;stroke-dasharray:none;stroke-opacity:1"
         d="m 319.285,281.488 c -12.84,-3.64 -17.433,-12.519 -17.433,-22.187 l 0,-61.817 c 0,-19.011 16.64,-34.863 30.113,-34.863 l 12.68,0 c 23.613,0 30.117,23.828 30.117,33.281 l 0,63.399 c 0,5.234 -3.172,18.074 -15.848,22.187 l 33.281,0 c -11.886,-3.324 -15.851,-11.883 -15.851,-22.187 l 0,-66.563 c 0,-19.343 -19.492,-33.289 -33.285,-33.289 l -25.356,0 c -12.84,0 -33.289,10.469 -33.289,28.535 l 0,69.735 c 0,8.719 -2.375,19.336 -15.848,23.769 l 50.719,0 0,0 z"
         inkscape:connector-curvature="0" /><path
         id="path32"
         style="fill:#17ae65;fill-opacity:1;fill-rule:nonzero;stroke:none"
         d="m 38.457,128.906 0,-1.465 c -2.2734,-0.195 -3.7539,-0.703 -4.4257,-1.523 -0.6758,-0.801 -1.0118,-2.656 -1.0118,-5.566 l 0,-25.2739 c 0,-4.1406 0.4258,-7.3633 1.2696,-9.6875 1.582,-4.2187 4.5859,-6.3281 9,-6.3281 4.8437,0 8.0937,2.168 9.7539,6.4844 0.9218,2.4219 1.3867,6.1523 1.3867,11.1914 l 0,20.5667 c 0,4.297 -0.3867,6.992 -1.1563,8.086 -0.7734,1.093 -2.2382,1.777 -4.3984,2.05 l 0,1.465 13.7148,0 0,-1.465 c -2.2968,-0.332 -3.7929,-1.074 -4.496,-2.207 -0.711,-1.152 -1.0625,-3.789 -1.0625,-7.929 l 0,-20.5667 c 0,-5.4492 -0.625,-9.707 -1.879,-12.7735 -2.3125,-5.625 -6.7148,-8.457 -13.1914,-8.457 -6.4062,0 -10.7695,2.793 -13.082,8.3399 C 27.625,86.8359 27,90.7617 27,95.6641 l 0,24.6879 c 0,2.871 -0.332,4.726 -0.9961,5.527 -0.6719,0.82 -2.1211,1.328 -4.3555,1.562 l 0,1.465 16.8086,0"
         inkscape:connector-curvature="0" /><path
         id="path34"
         style="fill:#17ae65;fill-opacity:1;fill-rule:nonzero;stroke:none"
         d="m 65.8945,78.1055 c 2.4532,0.332 4.0235,1.0742 4.7188,2.207 0.6953,1.1523 1.043,3.8086 1.043,7.9688 l 0,34.8047 -0.8086,1.269 c -0.8711,1.368 -1.6094,2.208 -2.2188,2.54 -0.6055,0.312 -1.5195,0.507 -2.7344,0.546 l 0,1.465 10.1133,0 22.875,-37.7927 0,26.2497 c 0,4.317 -0.4844,7.129 -1.4453,8.438 -0.6328,0.84 -2.0469,1.387 -4.2227,1.64 l 0,1.465 13.9142,0 0,-1.465 c -2.254,-0.312 -3.758,-1.035 -4.512,-2.187 -0.754,-1.172 -1.133,-3.809 -1.133,-7.949 l 0,-41.6019 -1.007,0 -26.2192,43.3399 0,-30.7617 c 0,-4.3165 0.4766,-7.129 1.418,-8.4375 0.6211,-0.8594 1.9961,-1.4258 4.1406,-1.7383 l 0,-1.4649 -13.9219,0 0,1.4649"
         inkscape:connector-curvature="0" /><path
         id="path36"
         style="fill:#17ae65;fill-opacity:1;fill-rule:nonzero;stroke:none"
         d="m 110.582,78.1055 c 2.414,0.2343 3.977,0.7031 4.688,1.4258 0.714,0.7421 1.07,2.6171 1.07,5.664 l 0,35.1567 c 0,2.91 -0.356,4.765 -1.07,5.605 -0.711,0.84 -2.274,1.328 -4.688,1.484 l 0,1.465 17.535,0 0,-1.465 c -2.414,-0.156 -3.976,-0.644 -4.687,-1.484 -0.715,-0.84 -1.071,-2.695 -1.071,-5.605 l 0,-35.1567 c 0,-3.0469 0.356,-4.9219 1.071,-5.664 0.711,-0.7227 2.273,-1.1915 4.687,-1.4258 l 0,-1.4649 -17.535,0 0,1.4649"
         inkscape:connector-curvature="0" /><path
         id="path38"
         style="fill:#17ae65;fill-opacity:1;fill-rule:nonzero;stroke:none"
         d="m 147.688,128.906 0,-1.347 c -1.485,-0.02 -2.493,-0.157 -3.032,-0.391 -0.945,-0.41 -1.418,-1.27 -1.418,-2.539 0,-0.664 0.172,-1.582 0.508,-2.754 0.336,-1.172 0.961,-3.125 1.887,-5.84 l 9.277,-27.5194 8.418,29.7854 c 0.371,1.308 0.652,2.422 0.848,3.34 0.191,0.918 0.289,1.66 0.289,2.246 0,1.523 -0.492,2.578 -1.477,3.125 -0.574,0.312 -1.531,0.508 -2.859,0.547 l 0,1.347 12.125,0 0,-1.347 c -1.258,-0.235 -2.18,-0.684 -2.781,-1.348 -0.907,-0.996 -1.801,-3.027 -2.688,-6.055 l -13.125,-44.4529 -0.89,0 -14.649,43.4379 c -1.234,3.691 -2.223,5.976 -2.969,6.875 -0.742,0.898 -1.824,1.425 -3.25,1.543 l 0,1.347 15.786,0"
         inkscape:connector-curvature="0" /><path
         id="path40"
         style="fill:#17ae65;fill-opacity:1;fill-rule:nonzero;stroke:none"
         d="m 176.027,78.1055 c 2.176,0.2929 3.594,0.8203 4.239,1.5429 0.644,0.7422 0.964,2.5782 0.964,5.5469 l 0,35.1567 c 0,2.793 -0.316,4.628 -0.949,5.488 -0.636,0.859 -2.058,1.406 -4.254,1.601 l 0,1.465 31.481,0 0.203,-11.289 -1.504,0 c -0.504,3.477 -1.254,5.723 -2.254,6.758 -1.008,1.016 -3.242,1.523 -6.715,1.523 l -8.07,0 c -0.871,0 -1.406,-0.175 -1.609,-0.546 -0.204,-0.372 -0.305,-1.075 -0.305,-2.11 l 0,-17.637 9.144,0 c 2.524,0 4.137,0.508 4.832,1.504 0.696,0.996 1.25,3.008 1.676,6.055 l 1.391,0 0,-18.2421 -1.391,0 c -0.445,3.0664 -1.011,5.0781 -1.707,6.0741 -0.695,0.996 -2.297,1.484 -4.801,1.484 l -9.144,0 0,-19.5503 c 0,-1.582 0.371,-2.5 1.117,-2.793 0.742,-0.2734 2.969,-0.4101 6.68,-0.4101 4.012,0 6.98,0.5859 8.894,1.7578 1.91,1.1719 3.629,4.0039 5.153,8.4961 l 1.652,0 -2.691,-13.3399 -32.032,0 0,1.4649"
         inkscape:connector-curvature="0" /><path
         id="path42"
         style="fill:#17ae65;fill-opacity:1;fill-rule:nonzero;stroke:none"
         d="m 213.824,78.1055 c 2.278,0.2734 3.696,0.8593 4.254,1.7578 0.563,0.8984 0.84,2.9883 0.84,6.2695 l 0,34.2192 c 0,2.773 -0.313,4.589 -0.941,5.449 -0.625,0.859 -2.008,1.406 -4.153,1.64 l 0,1.465 16.406,0 c 3.418,0 6.262,-0.566 8.536,-1.718 4.32,-2.188 6.484,-6.211 6.484,-12.071 0,-3.926 -0.961,-6.953 -2.879,-9.043 -1.922,-2.109 -4.527,-3.496 -7.828,-4.16 l 12.211,-20.0585 c 0.754,-1.2305 1.504,-2.1289 2.258,-2.6758 0.75,-0.5664 1.718,-0.918 2.894,-1.0742 l 0,-1.4649 -9.547,0 -14.824,24.3364 -2.597,-0.196 0,-15.5662 c 0,-2.9296 0.332,-4.7851 0.996,-5.5664 0.664,-0.7812 2.121,-1.289 4.355,-1.5429 l 0,-1.4649 -16.465,0 0,1.4649 z m 20.254,27.3825 c 3.145,1.719 4.719,4.961 4.719,9.707 0,4.571 -1.406,7.696 -4.227,9.356 -1.504,0.898 -3.5,1.347 -5.988,1.347 -1.676,0 -2.707,-0.156 -3.082,-0.468 -0.375,-0.332 -0.562,-1.075 -0.562,-2.266 l 0,-19.453 c 4.261,0.215 7.308,0.801 9.14,1.777"
         inkscape:connector-curvature="0" /><path
         id="path44"
         style="fill:#17ae65;fill-opacity:1;fill-rule:nonzero;stroke:none"
         d="m 258.105,92.5391 c 1.004,-3.5547 2.18,-6.3868 3.528,-8.4961 2.347,-3.6719 5.269,-5.5274 8.754,-5.5274 1.886,0 3.519,0.8008 4.898,2.4024 1.375,1.6015 2.067,3.8281 2.067,6.6797 0,2.5586 -0.696,4.8046 -2.082,6.6992 -0.903,1.2109 -2.813,3.0273 -5.719,5.4492 l -5.051,4.1989 c -1.523,1.289 -2.734,2.598 -3.645,3.907 -1.679,2.48 -2.519,5.234 -2.519,8.261 0,3.985 0.996,7.305 2.984,9.942 1.989,2.656 4.618,3.98 7.899,3.98 1.347,0 2.976,-0.445 4.875,-1.344 1.898,-0.878 2.984,-1.328 3.258,-1.328 0.73,0 1.238,0.235 1.515,0.703 0.281,0.469 0.5,1.114 0.653,1.969 l 1.214,0 1.305,-16.832 -1.422,0 c -0.961,5.078 -2.512,8.613 -4.644,10.625 -2.129,1.992 -4.239,3.008 -6.317,3.008 -1.621,0 -3.039,-0.645 -4.246,-1.914 -1.203,-1.27 -1.805,-3.047 -1.805,-5.313 0,-2.031 0.465,-3.769 1.387,-5.195 0.922,-1.465 2.36,-3.008 4.305,-4.609 l 5.207,-4.278 c 3.258,-2.675 5.551,-5.117 6.891,-7.3629 1.316,-2.2657 1.972,-4.9414 1.972,-8.0274 0,-4.1406 -1.172,-7.5976 -3.512,-10.3711 -2.343,-2.7734 -5.343,-4.1797 -8.988,-4.1797 -1.832,0 -3.746,0.4688 -5.742,1.4063 -2,0.918 -3.141,1.3867 -3.43,1.3867 -0.691,0 -1.16,-0.293 -1.406,-0.8594 -0.238,-0.5664 -0.398,-1.1718 -0.473,-1.8164 l -1.304,0 -1.762,16.836 1.355,0"
         inkscape:connector-curvature="0" /><path
         id="path46"
         style="fill:#17ae65;fill-opacity:1;fill-rule:nonzero;stroke:none"
         d="m 289.801,78.1055 c 2.414,0.2343 3.976,0.7031 4.687,1.4258 0.715,0.7421 1.071,2.6171 1.071,5.664 l 0,35.1567 c 0,2.91 -0.356,4.765 -1.071,5.605 -0.711,0.84 -2.273,1.328 -4.687,1.484 l 0,1.465 17.535,0 0,-1.465 c -2.414,-0.156 -3.977,-0.644 -4.688,-1.484 -0.714,-0.84 -1.07,-2.695 -1.07,-5.605 l 0,-35.1567 c 0,-3.0469 0.356,-4.9219 1.07,-5.664 0.711,-0.7227 2.274,-1.1915 4.688,-1.4258 l 0,-1.4649 -17.535,0 0,1.4649"
         inkscape:connector-curvature="0" /><path
         id="path48"
         style="fill:#17ae65;fill-opacity:1;fill-rule:nonzero;stroke:none"
         d="m 311.133,78.1055 c 2.164,0.2929 3.57,0.8203 4.226,1.5429 0.657,0.7422 0.985,2.5782 0.985,5.5469 l 0,35.1567 c 0,2.871 -0.317,4.726 -0.957,5.546 -0.633,0.821 -2.055,1.348 -4.254,1.543 l 0,1.465 15.972,0 c 5.387,0 9.938,-1.172 13.665,-3.535 6.707,-4.258 10.066,-11.836 10.066,-22.773 0,-3.9261 -0.606,-7.6761 -1.813,-11.2308 -1.203,-3.5352 -3.019,-6.543 -5.453,-8.9844 -1.543,-1.543 -3.144,-2.7148 -4.8,-3.5156 -3.032,-1.4844 -6.75,-2.2266 -11.172,-2.2266 l -16.465,0 0,1.4649 z m 11.941,2.0703 c 0.469,-0.4102 1.449,-0.6055 2.934,-0.6055 4.629,0 8.437,1.211 11.43,3.6719 4.589,3.75 6.886,10.1758 6.886,19.2578 0,8.105 -1.89,14.219 -5.672,18.301 -3.242,3.515 -7.531,5.254 -12.875,5.254 -1.332,0 -2.234,-0.196 -2.703,-0.567 -0.476,-0.39 -0.715,-1.25 -0.715,-2.558 l 0,-40.1956 c 0,-1.2891 0.239,-2.1289 0.715,-2.5586"
         inkscape:connector-curvature="0" /><path
         id="path50"
         style="fill:#17ae65;fill-opacity:1;fill-rule:nonzero;stroke:none"
         d="m 352.801,76.6406 0,1.4649 c 1.523,0.2343 2.664,0.9961 3.426,2.2851 0.761,1.3086 2.07,4.8633 3.925,10.6641 l 12.344,38.7893 1.184,0 14.765,-44.8049 c 0.977,-2.9688 1.766,-4.8047 2.352,-5.5078 0.586,-0.7032 1.582,-1.1719 2.969,-1.4258 l 0,-1.4649 -15.067,0 0,1.4649 c 1.727,0.1953 2.84,0.4492 3.348,0.7422 0.5,0.2929 0.754,1.0156 0.754,2.1679 0,0.3907 -0.098,1.0742 -0.293,2.0313 -0.195,0.9765 -0.461,2.0117 -0.813,3.0859 l -2.371,7.5977 -15.617,0 c -1.543,-5.1758 -2.461,-8.3203 -2.762,-9.4727 -0.293,-1.1328 -0.441,-2.0312 -0.441,-2.6953 0,-1.3281 0.402,-2.2656 1.211,-2.7734 0.5,-0.3125 1.445,-0.5274 2.832,-0.6836 l 0,-1.4649 -11.746,0 z m 25.527,20.293 -6.797,21.7574 -6.816,-21.7574 13.613,0"
         inkscape:connector-curvature="0" /><path
         id="path52"
         style="fill:#17ae65;fill-opacity:1;fill-rule:nonzero;stroke:none"
         d="m 396.863,78.1055 c 2.168,0.2929 3.575,0.8203 4.227,1.5429 0.656,0.7422 0.988,2.5782 0.988,5.5469 l 0,35.1567 c 0,2.871 -0.324,4.726 -0.957,5.546 -0.637,0.821 -2.062,1.348 -4.258,1.543 l 0,1.465 15.977,0 c 5.379,0 9.93,-1.172 13.66,-3.535 6.711,-4.258 10.07,-11.836 10.07,-22.773 0,-3.9261 -0.605,-7.6761 -1.808,-11.2308 -1.211,-3.5352 -3.028,-6.543 -5.457,-8.9844 -1.543,-1.543 -3.145,-2.7148 -4.805,-3.5156 -3.027,-1.4844 -6.758,-2.2266 -11.172,-2.2266 l -16.465,0 0,1.4649 z m 11.934,2.0703 c 0.476,-0.4102 1.453,-0.6055 2.937,-0.6055 4.629,0 8.438,1.211 11.438,3.6719 4.59,3.75 6.883,10.1758 6.883,19.2578 0,8.105 -1.895,14.219 -5.672,18.301 -3.242,3.515 -7.531,5.254 -12.871,5.254 -1.34,0 -2.239,-0.196 -2.715,-0.567 -0.469,-0.39 -0.703,-1.25 -0.703,-2.558 l 0,-40.1956 c 0,-1.2891 0.234,-2.1289 0.703,-2.5586"
         inkscape:connector-curvature="0" /><path
         id="path54"
         style="fill:#17ae65;fill-opacity:1;fill-rule:nonzero;stroke:none"
         d="m 485.484,76.6406 0,1.4649 c 1.524,0.2343 2.668,0.9961 3.43,2.2851 0.762,1.3086 2.07,4.8633 3.914,10.6641 l 12.356,38.7893 1.171,0 14.774,-44.8049 c 0.976,-2.9688 1.769,-4.8047 2.355,-5.5078 0.586,-0.7032 1.582,-1.1719 2.969,-1.4258 l 0,-1.4649 -15.078,0 0,1.4649 c 1.738,0.1953 2.852,0.4492 3.348,0.7422 0.507,0.2929 0.761,1.0156 0.761,2.1679 0,0.3907 -0.097,1.0742 -0.293,2.0313 -0.195,0.9765 -0.468,2.0117 -0.808,3.0859 l -2.375,7.5977 -15.613,0 c -1.543,-5.1758 -2.461,-8.3203 -2.754,-9.4727 -0.305,-1.1328 -0.461,-2.0312 -0.461,-2.6953 0,-1.3281 0.41,-2.2656 1.222,-2.7734 0.496,-0.3125 1.434,-0.5274 2.832,-0.6836 l 0,-1.4649 -11.75,0 z m 25.528,20.293 -6.797,21.7574 -6.817,-21.7574 13.614,0"
         inkscape:connector-curvature="0" /><path
         id="path56"
         style="fill:#17ae65;fill-opacity:1;fill-rule:nonzero;stroke:none"
         d="m 542.957,128.906 0,-1.465 c -2.277,-0.195 -3.75,-0.703 -4.426,-1.523 -0.683,-0.801 -1.015,-2.656 -1.015,-5.566 l 0,-25.2739 c 0,-4.1406 0.429,-7.3633 1.269,-9.6875 1.594,-4.2187 4.59,-6.3281 9.004,-6.3281 4.844,0 8.086,2.168 9.758,6.4844 0.926,2.4219 1.387,6.1523 1.387,11.1914 l 0,20.5667 c 0,4.297 -0.391,6.992 -1.164,8.086 -0.77,1.093 -2.235,1.777 -4.395,2.05 l 0,1.465 13.711,0 0,-1.465 c -2.293,-0.332 -3.789,-1.074 -4.492,-2.207 -0.711,-1.152 -1.063,-3.789 -1.063,-7.929 l 0,-20.5667 c 0,-5.4492 -0.625,-9.707 -1.875,-12.7735 -2.316,-5.625 -6.718,-8.457 -13.195,-8.457 -6.406,0 -10.762,2.793 -13.074,8.3399 -1.262,2.9882 -1.887,6.914 -1.887,11.8164 l 0,24.6879 c 0,2.871 -0.332,4.726 -1.004,5.527 -0.656,0.82 -2.109,1.328 -4.348,1.562 l 0,1.465 16.809,0"
         inkscape:connector-curvature="0" /><path
         id="path58"
         style="fill:#17ae65;fill-opacity:1;fill-rule:nonzero;stroke:none"
         d="m 570.438,128.906 33.503,0 0.325,-13.418 -1.418,0 c -0.703,4.219 -1.582,6.953 -2.657,8.242 -1.062,1.27 -3.32,1.895 -6.746,1.895 l -3.3,0 0,-40.4297 c 0,-3.0469 0.351,-4.9219 1.062,-5.664 0.715,-0.7227 2.285,-1.1915 4.699,-1.4258 l 0,-1.4649 -17.285,0 0,1.4649 c 2.508,0.2539 4.07,0.8008 4.688,1.6406 0.625,0.8594 0.925,2.9687 0.925,6.3867 l 0,39.4922 -3.328,0 c -3.273,0 -5.508,-0.625 -6.691,-1.875 -1.192,-1.27 -2.078,-4.023 -2.684,-8.262 l -1.445,0 0.352,13.418"
         inkscape:connector-curvature="0" /><path
         id="path60"
         style="fill:#17ae65;fill-opacity:1;fill-rule:nonzero;stroke:none"
         d="m 613.328,123.047 c 3.641,4.648 8.125,6.988 13.445,6.988 5.352,0 9.844,-2.34 13.489,-7.027 3.953,-5.059 5.937,-11.817 5.937,-20.254 0,-8.5743 -2.051,-15.3712 -6.133,-20.4493 -3.671,-4.5313 -8.097,-6.7969 -13.293,-6.7969 -5.546,0 -10.164,2.5195 -13.828,7.5391 -3.718,5.1172 -5.586,11.6797 -5.586,19.7071 0,8.437 1.993,15.195 5.969,20.293 z m 4.422,-38.7111 c 2.461,-3.9843 5.469,-5.957 9.043,-5.957 3.496,0 6.484,1.9336 8.965,5.8008 2.48,3.8672 3.722,10.0586 3.722,18.5743 0,8.613 -1.25,14.844 -3.761,18.672 -2.508,3.828 -5.489,5.742 -8.926,5.742 -3.555,0 -6.563,-1.973 -9.023,-5.957 -2.461,-3.965 -3.692,-10.117 -3.692,-18.457 0,-8.3009 1.223,-14.4532 3.672,-18.4181"
         inkscape:connector-curvature="0" /><path
         id="path62"
         style="fill:#17ae65;fill-opacity:1;fill-rule:nonzero;stroke:none"
         d="m 650.242,78.1055 c 2.449,0.332 4.024,1.0742 4.715,2.207 0.703,1.1523 1.047,3.8086 1.047,7.9688 l 0,34.8047 -0.813,1.269 c -0.867,1.368 -1.601,2.208 -2.214,2.54 -0.606,0.312 -1.516,0.507 -2.735,0.546 l 0,1.465 10.106,0 22.882,-37.7927 0,26.2497 c 0,4.317 -0.48,7.129 -1.445,8.438 -0.637,0.84 -2.043,1.387 -4.219,1.64 l 0,1.465 13.907,0 0,-1.465 c -2.246,-0.312 -3.762,-1.035 -4.504,-2.187 -0.762,-1.172 -1.133,-3.809 -1.133,-7.949 l 0,-41.6019 -1.016,0 -26.211,43.3399 0,-30.7617 c 0,-4.3165 0.469,-7.129 1.418,-8.4375 0.614,-0.8594 1.993,-1.4258 4.141,-1.7383 l 0,-1.4649 -13.926,0 0,1.4649"
         inkscape:connector-curvature="0" /><path
         id="path64"
         style="fill:#17ae65;fill-opacity:1;fill-rule:nonzero;stroke:none"
         d="m 701.285,123.047 c 3.653,4.648 8.137,6.988 13.457,6.988 5.344,0 9.836,-2.34 13.488,-7.027 3.946,-5.059 5.926,-11.817 5.926,-20.254 0,-8.5743 -2.039,-15.3712 -6.133,-20.4493 -3.66,-4.5313 -8.093,-6.7969 -13.281,-6.7969 -5.554,0 -10.164,2.5195 -13.836,7.5391 -3.722,5.1172 -5.578,11.6797 -5.578,19.7071 0,8.437 1.985,15.195 5.957,20.293 z m 4.434,-38.7111 c 2.453,-3.9843 5.469,-5.957 9.035,-5.957 3.496,0 6.484,1.9336 8.965,5.8008 2.48,3.8672 3.73,10.0586 3.73,18.5743 0,8.613 -1.261,14.844 -3.769,18.672 -2.512,3.828 -5.481,5.742 -8.926,5.742 -3.547,0 -6.563,-1.973 -9.024,-5.957 -2.46,-3.965 -3.691,-10.117 -3.691,-18.457 0,-8.3009 1.231,-14.4532 3.68,-18.4181"
         inkscape:connector-curvature="0" /><path
         id="path66"
         style="fill:#17ae65;fill-opacity:1;fill-rule:nonzero;stroke:none"
         d="m 738.199,78.1055 c 2.453,0.332 4.035,1.0742 4.727,2.207 0.695,1.1523 1.035,3.8086 1.035,7.9688 l 0,32.0707 c 0,2.851 -0.332,4.707 -1.016,5.566 -0.664,0.859 -2.207,1.367 -4.597,1.523 l 0,1.465 11.687,0 13.613,-39.3552 13.274,39.3552 11.777,0 0,-1.465 c -2.199,-0.195 -3.613,-0.742 -4.25,-1.601 -0.644,-0.86 -0.957,-2.676 -0.957,-5.488 l 0,-35.1176 c 0,-2.8711 0.313,-4.7266 0.957,-5.5274 0.637,-0.8203 2.051,-1.3476 4.25,-1.6015 l 0,-1.4649 -16.574,0 0,1.4649 c 2.395,0.2539 3.879,0.8203 4.465,1.7187 0.594,0.8789 0.887,2.9883 0.887,6.3281 l 0,35.4687 -15.184,-44.9804 -0.801,0 -14.922,43.1254 0,-31.4847 c 0,-4.3165 0.477,-7.129 1.414,-8.4375 0.618,-0.8594 2.004,-1.4258 4.141,-1.7383 l 0,-1.4649 -13.926,0 0,1.4649"
         inkscape:connector-curvature="0" /><path
         id="path68"
         style="fill:#17ae65;fill-opacity:1;fill-rule:nonzero;stroke:none"
         d="m 792.262,76.6406 0,1.4649 c 1.535,0.2343 2.676,0.9961 3.429,2.2851 0.77,1.3086 2.071,4.8633 3.914,10.6641 l 12.356,38.7893 1.18,0 14.765,-44.8049 c 0.989,-2.9688 1.77,-4.8047 2.356,-5.5078 0.593,-0.7032 1.582,-1.1719 2.968,-1.4258 l 0,-1.4649 -15.07,0 0,1.4649 c 1.731,0.1953 2.844,0.4492 3.352,0.7422 0.496,0.2929 0.75,1.0156 0.75,2.1679 0,0.3907 -0.098,1.0742 -0.293,2.0313 -0.196,0.9765 -0.457,2.0117 -0.809,3.0859 l -2.375,7.5977 -15.613,0 c -1.543,-5.1758 -2.461,-8.3203 -2.754,-9.4727 -0.305,-1.1328 -0.449,-2.0312 -0.449,-2.6953 0,-1.3281 0.398,-2.2656 1.211,-2.7734 0.496,-0.3125 1.445,-0.5274 2.832,-0.6836 l 0,-1.4649 -11.75,0 z m 25.527,20.293 -6.797,21.7574 -6.816,-21.7574 13.613,0"
         inkscape:connector-curvature="0" /><path
         id="path70"
         style="fill:none;stroke:#17ae65;stroke-width:5.64370012;stroke-linecap:butt;stroke-linejoin:miter;stroke-miterlimit:3.86370993;stroke-dasharray:none;stroke-opacity:1"
         d="m 0.945313,148.746 850.398687,0"
         inkscape:connector-curvature="0" /><path
         id="path72"
         style="fill:none;stroke:#17ae65;stroke-width:1.88115001;stroke-linecap:butt;stroke-linejoin:miter;stroke-miterlimit:3.86370993;stroke-dasharray:none;stroke-opacity:1"
         d="m 851.344,148.746 0,-84.8593 -850.398687,0 0,84.8593"
         inkscape:connector-curvature="0" /><path
         id="path74"
         style="fill:none;stroke:#17ae65;stroke-width:10.6651001;stroke-linecap:butt;stroke-linejoin:miter;stroke-miterlimit:3.86370993;stroke-dasharray:none;stroke-opacity:1"
         d="m 267.906,144.469 317.356,0"
         inkscape:connector-curvature="0" /><path
         id="path76"
         style="fill:#17ae65;fill-opacity:1;fill-rule:evenodd;stroke:none"
         d="m 514.559,6.26953 29.519,0 c 3.926,0 7.238,0.70313 9.934,2.12891 1.472,0.76172 2.89,1.87496 4.265,3.33986 2.161,2.3242 3.77,5.1953 4.836,8.5742 1.075,3.3789 1.621,6.9336 1.621,10.6836 0,10.4102 -2.988,17.6367 -8.957,21.6797 -3.3,2.2461 -7.351,3.3789 -12.136,3.3789 l -29.641,0 0,-1.3867 c 2.148,-0.1563 3.535,-0.625 4.172,-1.4453 0.633,-0.7813 0.945,-2.5586 0.945,-5.3321 l 0,-33.457 c 0,-2.9297 -0.312,-4.72657 -0.945,-5.44922 -0.598,-0.64454 -1.887,-1.09375 -3.84,-1.32813 -0.945,0.17578 -1.727,0.50781 -2.344,0.99609 -0.672,0.54688 -1.336,1.40626 -2.011,2.57816 L 499.129,30.293 c 2.93,0.6445 5.254,1.9726 6.941,3.9843 1.719,1.9922 2.578,4.8829 2.578,8.6329 -0.007,5.5859 -1.921,9.414 -5.769,11.4843 -2.012,1.1133 -4.543,1.6602 -7.578,1.6602 l -14.59,0 0,-1.3867 c 1.902,-0.2344 3.125,-0.7617 3.68,-1.5821 0.566,-0.8203 0.851,-2.539 0.851,-5.1953 l 0,-32.5781 c 0,-3.1445 -0.254,-5.1367 -0.754,-5.99609 C 484,8.45703 482.742,7.89063 480.711,7.63672 l 0,-1.36719 14.637,0 0,1.36719 c -1.993,0.23437 -3.289,0.72266 -3.887,1.46484 -0.586,0.76172 -0.867,2.53904 -0.867,5.33204 l 0,14.8047 2.929,0.1758 12.547,-23.14457 8.489,0 0,0 z m -82.551,0 27.656,0 c 3.926,0 7.238,0.70313 9.934,2.12891 1.472,0.76172 2.89,1.87496 4.265,3.33986 2.16,2.3242 3.77,5.1953 4.836,8.5742 1.082,3.3789 1.621,6.9336 1.621,10.6836 0,10.4102 -2.988,17.6367 -8.957,21.6797 -3.308,2.2461 -7.351,3.3789 -12.136,3.3789 l -14.2,0 0,-1.3867 c 1.961,-0.1953 3.223,-0.7032 3.778,-1.4844 0.578,-0.7813 0.851,-2.5391 0.851,-5.293 l 0,-33.457 c 0,-2.8516 -0.285,-4.62891 -0.871,-5.33204 -0.566,-0.66406 -1.738,-1.13281 -3.543,-1.44531 -1.152,0.25391 -1.972,0.70313 -2.48,1.32813 -0.52,0.68359 -1.211,2.46092 -2.09,5.29292 l -13.117,42.6563 -1.024,0 -10.988,-36.9141 c -1.648,-5.5468 -2.813,-8.9453 -3.496,-10.19528 -0.672,-1.25 -1.68,-1.97266 -3.035,-2.1875 l 0,-1.36719 10.437,0 0,1.36719 c -1.23,0.13672 -2.07,0.35156 -2.519,0.64453 -0.723,0.48828 -1.075,1.38672 -1.075,2.65625 0,0.625 0.129,1.4844 0.383,2.5781 0.274,1.0938 1.094,4.1016 2.469,9.0235 l 13.789,0 2.18,-7.2266 c 0.312,-1.0352 0.554,-2.0117 0.722,-2.9492 0.176,-0.918 0.262,-1.582 0.262,-1.9336 -0.008,-1.11329 -0.222,-1.81642 -0.672,-2.10939 -0.449,-0.27343 -1.437,-0.48828 -2.98,-0.68359 l 0,-1.36719 z m -67.918,1.36719 0,-1.36719 12.371,0 0,1.36719 c -1.902,0.29297 -3.125,0.83984 -3.672,1.64062 -0.84,1.24996 -1.258,3.92576 -1.258,8.04686 l 0,30.0196 13.242,-41.07427 0.723,0 13.477,42.83207 0,-33.7891 c 0,-3.1836 -0.266,-5.2148 -0.801,-6.07422 -0.52,-0.82031 -1.836,-1.36719 -3.957,-1.60156 l 0,-1.36719 14.758,0 0,1.36719 c -1.953,0.23437 -3.215,0.74219 -3.782,1.50391 -0.566,0.78125 -0.847,2.53907 -0.847,5.29297 l 0,33.457 c 0,2.6758 0.281,4.4141 0.847,5.2344 0.567,0.8203 1.829,1.3477 3.782,1.543 l 0,1.3867 -10.489,0 -11.652,-37.9492 -12.195,37.9492 -10.41,0 0,-1.3867 c 2.117,-0.1563 3.484,-0.6446 4.082,-1.4844 0.605,-0.8008 0.906,-2.5586 0.906,-5.293 l 0,-30.5664 c 0,-3.9648 -0.313,-6.5039 -0.926,-7.59764 -0.625,-1.07422 -2.023,-1.77734 -4.199,-2.08984 l 0,0 z m -41.133,0 0,-1.36719 28.477,0 2.39,12.71487 -1.465,0 c -1.355,-4.2969 -2.879,-6.9922 -4.578,-8.125 -1.699,-1.09377 -4.332,-1.66018 -7.898,-1.66018 -3.293,0 -5.274,0.13672 -5.942,0.41016 -0.652,0.27343 -0.976,1.15232 -0.976,2.65622 l 0,18.6133 8.101,0 c 2.227,0 3.653,-0.4687 4.266,-1.4258 0.621,-0.9375 1.125,-2.8515 1.52,-5.7617 l 1.234,0 0,17.4024 -1.234,0 c -0.375,-2.9102 -0.875,-4.8438 -1.489,-5.8008 -0.621,-0.9571 -2.05,-1.4258 -4.297,-1.4258 l -8.101,0 0,16.7969 c 0,0.9765 0.082,1.6406 0.254,1.9726 0.191,0.3711 0.668,0.5469 1.441,0.5469 l 7.153,0 c 3.085,0 5.074,-0.4883 5.968,-1.4648 0.887,-0.9766 1.555,-3.1446 2,-6.4649 l 1.34,0 -0.176,10.8008 -27.988,0 0,-1.3867 c 1.957,-0.1953 3.215,-0.7227 3.781,-1.543 0.567,-0.8203 0.852,-2.5586 0.852,-5.2344 l 0,-33.457 c 0,-2.8516 -0.293,-4.62891 -0.875,-5.33204 -0.567,-0.68359 -1.82,-1.17187 -3.758,-1.46484 l 0,0 z m -35.684,0 0,-1.36719 14.637,0 c 3.926,0 7.238,0.70313 9.926,2.12891 1.477,0.76172 2.902,1.87496 4.269,3.33986 2.165,2.3242 3.774,5.1953 4.84,8.5742 1.078,3.3789 1.621,6.9336 1.621,10.6836 0,10.4102 -2.984,17.6367 -8.953,21.6797 -3.308,2.2461 -7.355,3.3789 -12.14,3.3789 l -14.2,0 0,-1.3867 c 1.957,-0.1953 3.215,-0.7032 3.782,-1.4844 0.566,-0.7813 0.851,-2.5391 0.851,-5.293 l 0,-33.457 c 0,-2.8516 -0.293,-4.62891 -0.875,-5.33204 -0.586,-0.68359 -1.836,-1.17187 -3.758,-1.46484 l 0,0 z m -19.367,56.24998 317.356,0 0,-63.8867 -317.356,0 0,63.8867 z M 540.035,9.64844 c -0.41,0.39066 -0.613,1.21096 -0.613,2.42186 l 0,38.2617 c 0,1.25 0.203,2.0508 0.613,2.4219 0.442,0.3711 1.242,0.5469 2.422,0.5469 4.746,0 8.566,-1.6602 11.445,-5 3.36,-3.8867 5.039,-9.6875 5.039,-17.4219 0,-8.6328 -2.039,-14.7461 -6.113,-18.3203 -2.656,-2.3242 -6.043,-3.4961 -10.164,-3.4961 -1.32,0 -2.187,0.19531 -2.629,0.58594 l 0,0 z M 525.426,53.2227 c 0.625,0.8007 1.984,1.2695 4.074,1.4257 1.922,-0.1953 3.164,-0.6836 3.73,-1.4648 0.555,-0.7813 0.84,-2.5391 0.84,-5.293 l 0,-33.457 c 0,-2.8516 -0.285,-4.62891 -0.871,-5.33204 -0.574,-0.68359 -1.804,-1.17187 -3.699,-1.46484 -2.09,0.23437 -3.449,0.66406 -4.074,1.34766 -0.633,0.72265 -0.957,2.51952 -0.957,5.44922 l 0,33.457 c 0,2.7735 0.324,4.5508 0.957,5.3321 l 0,0 z M 498.719,33.7109 c -1.633,-0.9179 -4.336,-1.4843 -8.125,-1.6796 l 0,18.5546 c 0,1.1329 0.156,1.836 0.476,2.1289 0.352,0.3125 1.27,0.4688 2.766,0.4688 2.207,0 3.984,-0.4297 5.32,-1.2695 2.5,-1.6016 3.75,-4.5703 3.75,-8.9453 0,-4.5313 -1.394,-7.6172 -4.187,-9.2579 l 0,0 z M 455.621,9.64844 c -0.41,0.39066 -0.613,1.21096 -0.613,2.42186 l 0,38.2617 c 0,1.25 0.203,2.0508 0.613,2.4219 0.43,0.3711 1.242,0.5469 2.422,0.5469 4.746,0 8.566,-1.6602 11.445,-5 3.36,-3.8867 5.039,-9.6875 5.039,-17.4219 0,-8.6328 -2.039,-14.7461 -6.113,-18.3203 -2.664,-2.3242 -6.043,-3.4961 -10.164,-3.4961 -1.32,0 -2.199,0.19531 -2.629,0.58594 l 0,0 z m -23.875,15.93746 -12.109,0 6.015,20.7422 6.094,-20.7422 0,0 z M 297.871,9.64844 c -0.414,0.39066 -0.613,1.21096 -0.613,2.42186 l 0,38.2617 c 0,1.25 0.199,2.0508 0.613,2.4219 0.43,0.3711 1.238,0.5469 2.418,0.5469 4.75,0 8.566,-1.6602 11.445,-5 3.36,-3.8867 5.043,-9.6875 5.043,-17.4219 -0.004,-8.6328 -2.039,-14.7461 -6.121,-18.3203 -2.66,-2.3242 -6.047,-3.4961 -10.16,-3.4961 -1.32,0 -2.195,0.19531 -2.625,0.58594 l 0,0"
         inkscape:connector-curvature="0" /></g></g></svg>