<?xml version="1.0" encoding="utf-8" standalone="no"?>
<!DOCTYPE svg PUBLIC "-//W3C//DTD SVG 1.1//EN"
  "http://www.w3.org/Graphics/SVG/1.1/DTD/svg11.dtd">
<!-- Created with matplotlib (http://matplotlib.org/) -->
<svg height="321pt" version="1.1" viewBox="0 0 537 321" width="537pt" xmlns="http://www.w3.org/2000/svg" xmlns:xlink="http://www.w3.org/1999/xlink">
 <defs>
  <style type="text/css">
*{stroke-linecap:butt;stroke-linejoin:round;fill:#ffffff;}
  </style>
 </defs>
 <g id="figure_1">
  <g id="patch_1">
   <path d="M 0 321.12 
L 537.12 321.12 
L 537.12 0 
L 0 0 
L 0 321.12 
z
" style="fill:none;"/>
  </g>
  <g id="axes_1">
   <g id="patch_2">
    <path d="M 67.676995 123.313587 
L 527.981905 123.313587 
L 527.981905 8.856315 
L 67.676995 8.856315 
L 67.676995 123.313587 
z
" style="fill:none;"/>
   </g>
   <g id="line2d_1">
    <path clip-path="url(#p7d9f851c5b)" d="M 67.676995 86.150023 
L 96.446052 21.156747 
L 125.215109 14.0196 
L 153.984166 14.384013 
L 182.753222 14.390884 
L 211.522279 14.655847 
L 240.291336 14.889077 
L 269.060393 15.148654 
L 297.82945 15.416153 
L 326.598507 15.696136 
L 355.367563 15.986918 
L 384.13662 16.28822 
L 412.905677 16.59912 
L 441.674734 16.918733 
L 470.443791 17.246103 
L 499.212848 17.580295 
L 527.981905 17.920405 
" style="fill:none;stroke:#ffffff;stroke-dasharray:6.000000,6.000000;stroke-dashoffset:0.0;"/>
   </g>
   <g id="line2d_2">
    <path clip-path="url(#p7d9f851c5b)" d="M 67.676995 112.118367 
L 96.446052 46.345702 
L 125.215109 38.279012 
L 153.984166 38.548291 
L 182.753222 38.393368 
L 211.522279 38.624658 
L 240.291336 38.818562 
L 269.060393 39.061144 
L 297.82945 39.31414 
L 326.598507 39.584848 
L 355.367563 39.868316 
L 384.13662 40.164147 
L 412.905677 40.470696 
L 441.674734 40.78684 
L 470.443791 41.111382 
L 499.212848 41.443245 
L 527.981905 41.781405 
" style="fill:none;stroke:#ffffff;stroke-linecap:square;"/>
   </g>
   <g id="patch_3">
    <path d="M 67.676995 123.313587 
L 67.676995 8.856315 
" style="fill:none;stroke:#ffffff;stroke-linecap:square;stroke-linejoin:miter;stroke-width:1.5;"/>
   </g>
   <g id="patch_4">
    <path d="M 67.676995 123.313587 
L 527.981905 123.313587 
" style="fill:none;stroke:#ffffff;stroke-linecap:square;stroke-linejoin:miter;stroke-width:1.5;"/>
   </g>
   <g id="patch_5">
    <path d="M 67.676995 8.856315 
L 527.981905 8.856315 
" style="fill:none;stroke:#ffffff;stroke-linecap:square;stroke-linejoin:miter;stroke-width:1.5;"/>
   </g>
   <g id="patch_6">
    <path d="M 527.981905 123.313587 
L 527.981905 8.856315 
" style="fill:none;stroke:#ffffff;stroke-linecap:square;stroke-linejoin:miter;stroke-width:1.5;"/>
   </g>
   <g id="matplotlib.axis_1">
    <g id="xtick_1">
     <g id="line2d_3">
      <defs>
       <path d="M 0 0 
L 0 -5.5 
" id="m0cb7609bc0" style="stroke:#ffffff;stroke-width:1.5;"/>
      </defs>
      <g>
       <use style="stroke:#ffffff;stroke-width:1.5;" x="67.6769949603" xlink:href="#m0cb7609bc0" y="123.313586599"/>
      </g>
     </g>
     <g id="line2d_4">
      <defs>
       <path d="M 0 0 
L 0 5.5 
" id="md7feda140e" style="stroke:#ffffff;stroke-width:1.5;"/>
      </defs>
      <g>
       <use style="stroke:#ffffff;stroke-width:1.5;" x="67.6769949603" xlink:href="#md7feda140e" y="8.85631518524"/>
      </g>
     </g>
    </g>
    <g id="xtick_2">
     <g id="line2d_5">
      <g>
       <use style="stroke:#ffffff;stroke-width:1.5;" x="125.215108662" xlink:href="#m0cb7609bc0" y="123.313586599"/>
      </g>
     </g>
     <g id="line2d_6">
      <g>
       <use style="stroke:#ffffff;stroke-width:1.5;" x="125.215108662" xlink:href="#md7feda140e" y="8.85631518524"/>
      </g>
     </g>
    </g>
    <g id="xtick_3">
     <g id="line2d_7">
      <g>
       <use style="stroke:#ffffff;stroke-width:1.5;" x="182.753222364" xlink:href="#m0cb7609bc0" y="123.313586599"/>
      </g>
     </g>
     <g id="line2d_8">
      <g>
       <use style="stroke:#ffffff;stroke-width:1.5;" x="182.753222364" xlink:href="#md7feda140e" y="8.85631518524"/>
      </g>
     </g>
    </g>
    <g id="xtick_4">
     <g id="line2d_9">
      <g>
       <use style="stroke:#ffffff;stroke-width:1.5;" x="240.291336066" xlink:href="#m0cb7609bc0" y="123.313586599"/>
      </g>
     </g>
     <g id="line2d_10">
      <g>
       <use style="stroke:#ffffff;stroke-width:1.5;" x="240.291336066" xlink:href="#md7feda140e" y="8.85631518524"/>
      </g>
     </g>
    </g>
    <g id="xtick_5">
     <g id="line2d_11">
      <g>
       <use style="stroke:#ffffff;stroke-width:1.5;" x="297.829449768" xlink:href="#m0cb7609bc0" y="123.313586599"/>
      </g>
     </g>
     <g id="line2d_12">
      <g>
       <use style="stroke:#ffffff;stroke-width:1.5;" x="297.829449768" xlink:href="#md7feda140e" y="8.85631518524"/>
      </g>
     </g>
    </g>
    <g id="xtick_6">
     <g id="line2d_13">
      <g>
       <use style="stroke:#ffffff;stroke-width:1.5;" x="355.36756347" xlink:href="#m0cb7609bc0" y="123.313586599"/>
      </g>
     </g>
     <g id="line2d_14">
      <g>
       <use style="stroke:#ffffff;stroke-width:1.5;" x="355.36756347" xlink:href="#md7feda140e" y="8.85631518524"/>
      </g>
     </g>
    </g>
    <g id="xtick_7">
     <g id="line2d_15">
      <g>
       <use style="stroke:#ffffff;stroke-width:1.5;" x="412.905677173" xlink:href="#m0cb7609bc0" y="123.313586599"/>
      </g>
     </g>
     <g id="line2d_16">
      <g>
       <use style="stroke:#ffffff;stroke-width:1.5;" x="412.905677173" xlink:href="#md7feda140e" y="8.85631518524"/>
      </g>
     </g>
    </g>
    <g id="xtick_8">
     <g id="line2d_17">
      <g>
       <use style="stroke:#ffffff;stroke-width:1.5;" x="470.443790875" xlink:href="#m0cb7609bc0" y="123.313586599"/>
      </g>
     </g>
     <g id="line2d_18">
      <g>
       <use style="stroke:#ffffff;stroke-width:1.5;" x="470.443790875" xlink:href="#md7feda140e" y="8.85631518524"/>
      </g>
     </g>
    </g>
    <g id="xtick_9">
     <g id="line2d_19">
      <g>
       <use style="stroke:#ffffff;stroke-width:1.5;" x="527.981904577" xlink:href="#m0cb7609bc0" y="123.313586599"/>
      </g>
     </g>
     <g id="line2d_20">
      <g>
       <use style="stroke:#ffffff;stroke-width:1.5;" x="527.981904577" xlink:href="#md7feda140e" y="8.85631518524"/>
      </g>
     </g>
    </g>
   </g>
   <g id="matplotlib.axis_2">
    <g id="ytick_1">
     <g id="line2d_21">
      <defs>
       <path d="M 0 0 
L 5.5 0 
" id="mac348b1ae3" style="stroke:#ffffff;stroke-width:1.5;"/>
      </defs>
      <g>
       <use style="stroke:#ffffff;stroke-width:1.5;" x="67.6769949603" xlink:href="#mac348b1ae3" y="123.313586599"/>
      </g>
     </g>
     <g id="line2d_22">
      <defs>
       <path d="M 0 0 
L -5.5 0 
" id="m0ba013e189" style="stroke:#ffffff;stroke-width:1.5;"/>
      </defs>
      <g>
       <use style="stroke:#ffffff;stroke-width:1.5;" x="527.981904577" xlink:href="#m0ba013e189" y="123.313586599"/>
      </g>
     </g>
     <g id="text_1">
      <!-- $-3.6$ -->
      <defs>
       <path d="M 18.40625 4.796875 
C 18.40625 7.6875 16 9.671875 13.59375 9.671875 
C 10.703125 9.671875 8.703125 7.28125 8.703125 4.890625 
C 8.703125 2 11.09375 0 13.5 0 
C 16.40625 0 18.40625 2.390625 18.40625 4.796875 
" id="CMMI12-58"/>
       <path d="M 10.59375 34 
C 10.59375 57.65625 21.796875 63 28.296875 63 
C 30.40625 63 35.5 62.640625 37.5 59 
C 35.90625 59 32.90625 59 32.90625 55.515625 
C 32.90625 52.828125 35.09375 51.921875 36.5 51.921875 
C 37.40625 51.921875 40.09375 52.3125 40.09375 55.625 
C 40.09375 61.78125 35.09375 65.296875 28.203125 65.296875 
C 16.296875 65.296875 3.796875 52.96875 3.796875 31 
C 3.796875 3.953125 15.09375 -2 23.09375 -2 
C 32.796875 -2 42 6.671875 42 20.046875 
C 42 32.515625 33.90625 41.59375 23.703125 41.59375 
C 17.59375 41.59375 13.09375 37.609375 10.59375 30.625 
z
M 23.09375 0.390625 
C 10.796875 0.390625 10.796875 18.75 10.796875 22.4375 
C 10.796875 29.625 14.203125 40 23.5 40 
C 25.203125 40 30.09375 40 33.40625 33.125 
C 35.203125 29.21875 35.203125 25.140625 35.203125 20.140625 
C 35.203125 14.75 35.203125 10.78125 33.09375 6.78125 
C 30.90625 2.671875 27.703125 0.390625 23.09375 0.390625 
" id="CMR17-54"/>
       <path d="M 65.90625 23 
C 67.59375 23 69.40625 23 69.40625 25 
C 69.40625 27 67.59375 27 65.90625 27 
L 11.796875 27 
C 10.09375 27 8.296875 27 8.296875 25 
C 8.296875 23 10.09375 23 11.796875 23 
z
" id="CMSY10-0"/>
       <path d="M 22.09375 33.703125 
C 31 33.703125 34.90625 25.96875 34.90625 17.03125 
C 34.90625 5 28.5 0.390625 22.703125 0.390625 
C 17.40625 0.390625 8.796875 3.03125 6.09375 10.828125 
C 6.59375 10.625 7.09375 10.625 7.59375 10.625 
C 10 10.625 11.796875 12.21875 11.796875 14.8125 
C 11.796875 17.703125 9.59375 19 7.59375 19 
C 5.90625 19 3.296875 18.203125 3.296875 14.46875 
C 3.296875 5.234375 12.296875 -2 22.90625 -2 
C 34 -2 42.5 6.71875 42.5 16.953125 
C 42.5 26.671875 34.5 33.703125 25 34.796875 
C 32.59375 36.375 39.90625 43.0625 39.90625 52.015625 
C 39.90625 59.6875 32 65.296875 23 65.296875 
C 13.90625 65.296875 5.90625 59.828125 5.90625 52.015625 
C 5.90625 48.59375 8.5 48 9.796875 48 
C 11.90625 48 13.703125 49.296875 13.703125 51.890625 
C 13.703125 54.46875 11.90625 55.765625 9.796875 55.765625 
C 9.40625 55.765625 8.90625 55.765625 8.5 55.578125 
C 11.40625 61.859375 19.296875 63 22.796875 63 
C 26.296875 63 32.90625 61.328125 32.90625 51.875 
C 32.90625 49.109375 32.5 44.1875 29.09375 39.84375 
C 26.09375 36 22.703125 36 19.40625 35.6875 
C 18.90625 35.6875 16.59375 35.453125 16.203125 35.453125 
C 15.5 35.359375 15.09375 35.265625 15.09375 34.5 
C 15.09375 33.796875 15.203125 33.703125 17.203125 33.703125 
z
" id="CMR17-51"/>
      </defs>
      <g transform="translate(24.4838812461 128.294268174)scale(0.2 -0.2)">
       <use transform="scale(0.9962640099626402)" xlink:href="#CMSY10-0"/>
       <use transform="translate(77.4874676506071 0.0)scale(0.9962640099626402)" xlink:href="#CMR17-51"/>
       <use transform="translate(123.17794476766814 0.0)scale(0.9962640099626402)" xlink:href="#CMMI12-58"/>
       <use transform="translate(150.27512185748756 0.0)scale(0.9962640099626402)" xlink:href="#CMR17-54"/>
      </g>
     </g>
    </g>
    <g id="ytick_2">
     <g id="line2d_23">
      <g>
       <use style="stroke:#ffffff;stroke-width:1.5;" x="67.6769949603" xlink:href="#mac348b1ae3" y="94.6992687456"/>
      </g>
     </g>
     <g id="line2d_24">
      <g>
       <use style="stroke:#ffffff;stroke-width:1.5;" x="527.981904577" xlink:href="#m0ba013e189" y="94.6992687456"/>
      </g>
     </g>
     <g id="text_2">
      <!-- $-2.4$ -->
      <defs>
       <path d="M 33.59375 64.40625 
C 33.59375 66.5 33.5 66.5 31.703125 66.5 
L 2 19.59375 
L 2 17 
L 27.796875 17 
L 27.796875 7.140625 
C 27.796875 3.5 27.59375 2.5 20.59375 2.5 
L 18.703125 2.5 
L 18.703125 0 
C 21.90625 0 27.296875 0 30.703125 0 
C 34.09375 0 39.5 0 42.703125 0 
L 42.703125 2.5 
L 40.796875 2.5 
C 33.796875 2.5 33.59375 3.5 33.59375 7.140625 
L 33.59375 17 
L 43.796875 17 
L 43.796875 19.59375 
L 33.59375 19.59375 
z
M 28.09375 57.859375 
L 28.09375 19.59375 
L 4 19.59375 
z
" id="CMR17-52"/>
       <path d="M 41.703125 15.453125 
L 39.90625 15.453125 
C 38.90625 8.375 38.09375 7.171875 37.703125 6.5625 
C 37.203125 5.765625 30 5.765625 28.59375 5.765625 
L 9.40625 5.765625 
C 13 9.671875 20 16.75 28.5 24.953125 
C 34.59375 30.734375 41.703125 37.53125 41.703125 47.421875 
C 41.703125 59.21875 32.296875 66 21.796875 66 
C 10.796875 66 4.09375 56.3125 4.09375 47.34375 
C 4.09375 43.4375 7 42.9375 8.203125 42.9375 
C 9.203125 42.9375 12.203125 43.546875 12.203125 47.03125 
C 12.203125 50.109375 9.59375 51 8.203125 51 
C 7.59375 51 7 50.90625 6.59375 50.703125 
C 8.5 59.21875 14.296875 63.40625 20.40625 63.40625 
C 29.09375 63.40625 34.796875 56.515625 34.796875 47.421875 
C 34.796875 38.734375 29.703125 31.25 24 24.75 
L 4.09375 2.28125 
L 4.09375 0 
L 39.296875 0 
z
" id="CMR17-50"/>
      </defs>
      <g transform="translate(24.4838812461 99.6799503206)scale(0.2 -0.2)">
       <use transform="scale(0.9962640099626402)" xlink:href="#CMSY10-0"/>
       <use transform="translate(77.4874676506071 0.0)scale(0.9962640099626402)" xlink:href="#CMR17-50"/>
       <use transform="translate(123.17794476766814 0.0)scale(0.9962640099626402)" xlink:href="#CMMI12-58"/>
       <use transform="translate(150.27512185748756 0.0)scale(0.9962640099626402)" xlink:href="#CMR17-52"/>
      </g>
     </g>
    </g>
    <g id="ytick_3">
     <g id="line2d_25">
      <g>
       <use style="stroke:#ffffff;stroke-width:1.5;" x="67.6769949603" xlink:href="#mac348b1ae3" y="66.0849508922"/>
      </g>
     </g>
     <g id="line2d_26">
      <g>
       <use style="stroke:#ffffff;stroke-width:1.5;" x="527.981904577" xlink:href="#m0ba013e189" y="66.0849508922"/>
      </g>
     </g>
     <g id="text_3">
      <!-- $-1.2$ -->
      <defs>
       <path d="M 26.59375 63.40625 
C 26.59375 65.5 26.5 65.5 25.09375 65.5 
C 21.203125 61.1875 15.296875 59.796875 9.703125 59.796875 
C 9.40625 59.796875 8.90625 59.796875 8.796875 59.5 
C 8.703125 59.296875 8.703125 59.09375 8.703125 57 
C 11.796875 57 17 57.59375 21 59.984375 
L 21 7.203125 
C 21 3.6875 20.796875 2.5 12.203125 2.5 
L 9.203125 2.5 
L 9.203125 0 
C 14 0 19 0 23.796875 0 
C 28.59375 0 33.59375 0 38.40625 0 
L 38.40625 2.5 
L 35.40625 2.5 
C 26.796875 2.5 26.59375 3.59375 26.59375 7.15625 
z
" id="CMR17-49"/>
      </defs>
      <g transform="translate(24.4838812461 71.0656324671)scale(0.2 -0.2)">
       <use transform="scale(0.9962640099626402)" xlink:href="#CMSY10-0"/>
       <use transform="translate(77.4874676506071 0.0)scale(0.9962640099626402)" xlink:href="#CMR17-49"/>
       <use transform="translate(123.17794476766814 0.0)scale(0.9962640099626402)" xlink:href="#CMMI12-58"/>
       <use transform="translate(150.27512185748756 0.0)scale(0.9962640099626402)" xlink:href="#CMR17-50"/>
      </g>
     </g>
    </g>
    <g id="ytick_4">
     <g id="line2d_27">
      <g>
       <use style="stroke:#ffffff;stroke-width:1.5;" x="67.6769949603" xlink:href="#mac348b1ae3" y="37.4706330387"/>
      </g>
     </g>
     <g id="line2d_28">
      <g>
       <use style="stroke:#ffffff;stroke-width:1.5;" x="527.981904577" xlink:href="#m0ba013e189" y="37.4706330387"/>
      </g>
     </g>
     <g id="text_4">
      <!-- $0$ -->
      <defs>
       <path d="M 42 31.640625 
C 42 37.75 41.90625 48.125 37.703125 56.109375 
C 34 63.109375 28.09375 65.59375 22.90625 65.59375 
C 18.09375 65.59375 12 63.40625 8.203125 56.203125 
C 4.203125 48.71875 3.796875 39.4375 3.796875 31.640625 
C 3.796875 25.953125 3.90625 17.28125 7 9.671875 
C 11.296875 -0.609375 19 -2 22.90625 -2 
C 27.5 -2 34.5 -0.109375 38.59375 9.375 
C 41.59375 16.28125 42 24.359375 42 31.640625 
M 22.90625 -0.40625 
C 16.5 -0.40625 12.703125 5.078125 11.296875 12.6875 
C 10.203125 18.5625 10.203125 27.15625 10.203125 32.75 
C 10.203125 40.4375 10.203125 46.828125 11.5 52.921875 
C 13.40625 61.390625 19 64 22.90625 64 
C 27 64 32.296875 61.296875 34.203125 53.125 
C 35.5 47.4375 35.59375 40.734375 35.59375 32.75 
C 35.59375 26.25 35.59375 18.265625 34.40625 12.375 
C 32.296875 1.484375 26.40625 -0.40625 22.90625 -0.40625 
" id="CMR17-48"/>
      </defs>
      <g transform="translate(54.5388995369 42.4513146137)scale(0.2 -0.2)">
       <use transform="scale(0.9962640099626402)" xlink:href="#CMR17-48"/>
      </g>
     </g>
    </g>
    <g id="ytick_5">
     <g id="line2d_29">
      <g>
       <use style="stroke:#ffffff;stroke-width:1.5;" x="67.6769949603" xlink:href="#mac348b1ae3" y="8.85631518524"/>
      </g>
     </g>
     <g id="line2d_30">
      <g>
       <use style="stroke:#ffffff;stroke-width:1.5;" x="527.981904577" xlink:href="#m0ba013e189" y="8.85631518524"/>
      </g>
     </g>
     <g id="text_5">
      <!-- $1.2$ -->
      <g transform="translate(39.9813686955 13.8369967602)scale(0.2 -0.2)">
       <use transform="scale(0.9962640099626402)" xlink:href="#CMR17-49"/>
       <use transform="translate(45.69047711706103 0.0)scale(0.9962640099626402)" xlink:href="#CMMI12-58"/>
       <use transform="translate(72.78765420688046 0.0)scale(0.9962640099626402)" xlink:href="#CMR17-50"/>
      </g>
     </g>
    </g>
    <g id="text_6">
     <!-- $\eta_{zpe}$ -->
     <defs>
      <path d="M 47.5 27.625 
C 48 29.609375 48.296875 30.828125 48.296875 33.515625 
C 48.296875 39.5 44.796875 43.984375 37.203125 43.984375 
C 28.296875 43.984375 23.59375 37.703125 21.796875 35.21875 
C 21.5 40.90625 17.40625 43.984375 13 43.984375 
C 10.09375 43.984375 7.796875 42.59375 5.90625 38.796875 
C 4.09375 35.21875 2.703125 29.125 2.703125 28.734375 
C 2.703125 28.328125 3.09375 27.828125 3.796875 27.828125 
C 4.59375 27.828125 4.703125 27.9375 5.296875 30.21875 
C 6.796875 36.109375 8.703125 42 12.703125 42 
C 15 42 15.796875 40.40625 15.796875 37.40625 
C 15.796875 35.21875 14.796875 31.328125 14.09375 28.234375 
L 11.296875 17.46875 
C 10.90625 15.5625 9.796875 11.078125 9.296875 9.265625 
C 8.59375 6.6875 7.5 1.984375 7.5 1.5 
C 7.5 0.09375 8.59375 -1 10.09375 -1 
C 11.296875 -1 12.703125 -0.390625 13.5 1.09375 
C 13.703125 1.59375 14.59375 5.09375 15.09375 7.078125 
L 17.296875 16.0625 
L 20.59375 29.234375 
C 20.796875 29.828125 23.296875 34.8125 27 38 
C 29.59375 40.40625 33 42 36.90625 42 
C 40.90625 42 42.296875 39 42.296875 35.015625 
C 42.296875 32.109375 41.90625 30.515625 41.40625 28.609375 
L 29.796875 -17.296875 
C 29.703125 -17.796875 29.5 -18.390625 29.5 -19 
C 29.5 -20.5 30.703125 -21.5 32.203125 -21.5 
C 33.09375 -21.5 35.203125 -21.09375 36 -18.09375 
z
" id="CMMI12-17"/>
      <path d="M 17.90625 23.109375 
C 20.59375 23.109375 27.40625 23.109375 32.203125 24.921875 
C 39.796875 27.859375 40.5 33.71875 40.5 35.53125 
C 40.5 39.96875 36.703125 44 30.09375 44 
C 19.59375 44 4.5 34.53125 4.5 16.765625 
C 4.5 6.28125 10.5 -1 19.59375 -1 
C 33.203125 -1 41.796875 9.515625 41.796875 10.8125 
C 41.796875 11.40625 41.203125 11.90625 40.796875 11.90625 
C 40.5 11.90625 40.40625 11.8125 39.5 10.921875 
C 33.09375 2.484375 23.59375 1 19.796875 1 
C 14.09375 1 11.09375 5.46875 11.09375 12.84375 
C 11.09375 14.234375 11.09375 16.734375 12.59375 23.109375 
z
M 13.09375 25 
C 17.40625 40.5 26.90625 42.015625 30.09375 42.015625 
C 34.5 42.015625 37.5 39.40625 37.5 35.578125 
C 37.5 25 21.5 25 17.296875 25 
z
" id="CMMI12-101"/>
      <path d="M 12.703125 7.59375 
C 17 12.546875 20.5 15.6875 25.5 20.25 
C 31.5 25.5 34.09375 28.015625 35.5 29.546875 
C 42.5 36.53125 46 42.390625 46 43.1875 
C 46 44 45.203125 44 45 44 
C 44.296875 44 44.09375 43.640625 43.59375 42.96875 
C 41.09375 38.96875 38.703125 36.984375 36.09375 36.984375 
C 34 36.984375 32.90625 37.828125 31 40.078125 
C 28.90625 42.421875 27.203125 44 24.296875 44 
C 17 44 12.59375 35.265625 12.59375 33.25 
C 12.59375 32.9375 12.703125 32.3125 13.59375 32.3125 
C 14.40625 32.3125 14.5 32.671875 14.796875 33.328125 
C 16.5 37.0625 21.296875 37.71875 23.203125 37.71875 
C 25.296875 37.71875 27.296875 37.125 29.40625 36.359375 
C 33.203125 35 34.796875 35 35.796875 35 
C 36.5 35 36.90625 35 37.40625 35.09375 
C 34.09375 31.15625 28.703125 26.296875 24.203125 22.15625 
L 14.09375 12.75 
C 8 6.484375 4.296875 0.515625 4.296875 -0.1875 
C 4.296875 -0.796875 4.796875 -1 5.40625 -1 
C 6 -1 6.09375 -0.890625 6.796875 0.21875 
C 8.40625 2.546875 11.59375 6 15.296875 6 
C 17.40625 6 18.40625 5.34375 20.40625 3.015625 
C 22.296875 0.953125 24 -1 27.203125 -1 
C 37 -1 42.59375 11.4375 42.59375 13.6875 
C 42.59375 14.109375 42.5 14.71875 41.5 14.71875 
C 40.703125 14.71875 40.59375 14.328125 40.296875 13.359375 
C 38.09375 7.625 32.203125 5.28125 28.296875 5.28125 
C 26.203125 5.28125 24.203125 5.875 22.09375 6.640625 
C 18.09375 8 17 8 15.703125 8 
C 14.703125 8 13.59375 8 12.703125 7.59375 
" id="CMMI12-122"/>
      <path d="M 4.296875 -12.328125 
C 3.59375 -15.3125 3.203125 -16.109375 -0.90625 -16.109375 
C -2.09375 -16.109375 -3.09375 -16.109375 -3.09375 -18 
C -3.09375 -18.203125 -3 -19 -1.90625 -19 
C -0.59375 -19 0.796875 -19 2.09375 -19 
L 6.40625 -19 
C 8.5 -19 13.59375 -19 15.703125 -19 
C 16.296875 -19 17.5 -19 17.5 -17.203125 
C 17.5 -16.109375 16.796875 -16.109375 15.09375 -16.109375 
C 10.5 -16.109375 10.203125 -15.421875 10.203125 -14.640625 
C 10.203125 -13.453125 14.703125 3.421875 15.296875 5.6875 
C 16.40625 2.890625 19.09375 -1 24.296875 -1 
C 35.59375 -1 47.796875 13.671875 47.796875 28.34375 
C 47.796875 37.515625 42.59375 44 35.09375 44 
C 28.703125 44 23.296875 37.8125 22.203125 36.421875 
C 21.40625 41.40625 17.5 44 13.5 44 
C 10.59375 44 8.296875 42.609375 6.40625 38.8125 
C 4.59375 35.21875 3.203125 29.140625 3.203125 28.734375 
C 3.203125 28.34375 3.59375 27.84375 4.296875 27.84375 
C 5.09375 27.84375 5.203125 27.9375 5.796875 30.234375 
C 7.296875 36.125 9.203125 42.015625 13.203125 42.015625 
C 15.5 42.015625 16.296875 40.421875 16.296875 37.453125 
C 16.296875 35.078125 16 34.078125 15.59375 32.296875 
z
M 21.59375 31.140625 
C 22.296875 33.921875 25.09375 36.828125 26.703125 38.21875 
C 27.796875 39.21875 31.09375 42.015625 34.90625 42.015625 
C 39.296875 42.015625 41.296875 37.625 41.296875 32.4375 
C 41.296875 27.640625 38.5 16.359375 36 11.171875 
C 33.5 5.78125 28.90625 1 24.296875 1 
C 17.5 1 16.40625 9.578125 16.40625 9.984375 
C 16.40625 10.28125 16.59375 11.078125 16.703125 11.578125 
z
" id="CMMI12-112"/>
     </defs>
     <g transform="translate(15.2206933959 82.461451004)rotate(-90.0)scale(0.22 -0.22)">
      <use transform="translate(0.0 14.943914544092468)scale(0.9962640099626402)" xlink:href="#CMMI12-17"/>
      <use transform="translate(48.12922305514478 0.0)scale(0.6973817666173724)" xlink:href="#CMMI12-122"/>
      <use transform="translate(82.95764661815069 0.0)scale(0.6973817666173724)" xlink:href="#CMMI12-112"/>
      <use transform="translate(117.22915288371732 0.0)scale(0.6973817666173724)" xlink:href="#CMMI12-101"/>
     </g>
    </g>
   </g>
  </g>
  <g id="axes_2">
   <g id="patch_7">
    <path d="M 67.676995 274.923488 
L 527.981905 274.923488 
L 527.981905 160.466217 
L 67.676995 160.466217 
L 67.676995 274.923488 
z
" style="fill:none;"/>
   </g>
   <g id="line2d_31">
    <path clip-path="url(#p4861a06dfb)" d="M 67.676995 251.065572 
L 96.446052 246.611212 
L 125.215109 246.641943 
L 153.984166 246.74838 
L 182.753222 246.859844 
L 211.522279 246.982419 
L 240.291336 247.115763 
L 269.060393 247.258917 
L 297.82945 247.410777 
L 326.598507 247.570148 
L 355.367563 247.735805 
L 384.13662 247.906557 
L 412.905677 248.081322 
L 441.674734 248.259174 
L 470.443791 248.439367 
L 499.212848 248.621336 
L 527.981905 248.80468 
" style="fill:none;stroke:#ffffff;stroke-linecap:square;"/>
   </g>
   <g id="line2d_32">
    <path clip-path="url(#p4861a06dfb)" d="M 67.676995 268.822467 
L 96.446052 249.96422 
L 125.215109 246.928796 
L 153.984166 246.771689 
L 182.753222 246.861161 
L 211.522279 246.980909 
L 240.291336 247.111785 
L 269.060393 247.250138 
L 297.82945 247.393229 
L 326.598507 247.538231 
L 355.367563 247.682472 
L 384.13662 247.823759 
L 412.905677 247.96059 
L 441.674734 248.092218 
L 470.443791 248.218604 
L 499.212848 248.340288 
L 527.981905 248.458232 
" style="fill:none;stroke:#ffffff;stroke-dasharray:6.000000,6.000000;stroke-dashoffset:0.0;"/>
   </g>
   <g id="line2d_33">
    <path clip-path="url(#p4861a06dfb)" d="M 67.676995 244.272645 
L 96.446052 236.307647 
L 125.215109 245.525486 
L 153.984166 246.628602 
L 182.753222 246.844364 
L 211.522279 246.973241 
L 240.291336 247.096605 
L 269.060393 247.21747 
L 297.82945 247.329942 
L 326.598507 247.427649 
L 355.367563 247.505721 
L 384.13662 247.561581 
L 412.905677 247.59508 
L 441.674734 247.608191 
L 470.443791 247.604483 
L 499.212848 247.588525 
L 527.981905 247.565322 
" style="fill:none;stroke:#ffffff;stroke-dasharray:3.000000,5.000000,1.000000,5.000000;stroke-dashoffset:0.0;"/>
   </g>
   <g id="line2d_34">
    <path clip-path="url(#p4861a06dfb)" d="M 67.676995 174.636268 
L 96.446052 268.263452 
L 125.215109 250.155272 
L 153.984166 247.210628 
L 182.753222 246.907085 
L 211.522279 246.962428 
L 240.291336 247.05183 
L 269.060393 247.121337 
L 297.82945 247.151602 
L 326.598507 247.131384 
L 355.367563 247.056048 
L 384.13662 246.927328 
L 412.905677 246.752208 
L 441.674734 246.541321 
L 470.443791 246.307253 
L 499.212848 246.062993 
L 527.981905 245.8207 
" style="fill:none;stroke:#ffffff;stroke-dasharray:1.000000,3.000000;stroke-dashoffset:0.0;"/>
   </g>
   <g id="patch_8">
    <path d="M 67.676995 274.923488 
L 67.676995 160.466217 
" style="fill:none;stroke:#ffffff;stroke-linecap:square;stroke-linejoin:miter;stroke-width:1.5;"/>
   </g>
   <g id="patch_9">
    <path d="M 67.676995 274.923488 
L 527.981905 274.923488 
" style="fill:none;stroke:#ffffff;stroke-linecap:square;stroke-linejoin:miter;stroke-width:1.5;"/>
   </g>
   <g id="patch_10">
    <path d="M 67.676995 160.466217 
L 527.981905 160.466217 
" style="fill:none;stroke:#ffffff;stroke-linecap:square;stroke-linejoin:miter;stroke-width:1.5;"/>
   </g>
   <g id="patch_11">
    <path d="M 527.981905 274.923488 
L 527.981905 160.466217 
" style="fill:none;stroke:#ffffff;stroke-linecap:square;stroke-linejoin:miter;stroke-width:1.5;"/>
   </g>
   <g id="matplotlib.axis_3">
    <g id="xtick_10">
     <g id="line2d_35">
      <g>
       <use style="stroke:#ffffff;stroke-width:1.5;" x="67.6769949603" xlink:href="#m0cb7609bc0" y="274.923488383"/>
      </g>
     </g>
     <g id="line2d_36">
      <g>
       <use style="stroke:#ffffff;stroke-width:1.5;" x="67.6769949603" xlink:href="#md7feda140e" y="160.46621697"/>
      </g>
     </g>
     <g id="text_7">
      <!-- $4$ -->
      <g transform="translate(63.1079472486 292.760485144)scale(0.2 -0.2)">
       <use transform="scale(0.9962640099626402)" xlink:href="#CMR17-52"/>
      </g>
     </g>
    </g>
    <g id="xtick_11">
     <g id="line2d_37">
      <g>
       <use style="stroke:#ffffff;stroke-width:1.5;" x="125.215108662" xlink:href="#m0cb7609bc0" y="274.923488383"/>
      </g>
     </g>
     <g id="line2d_38">
      <g>
       <use style="stroke:#ffffff;stroke-width:1.5;" x="125.215108662" xlink:href="#md7feda140e" y="160.46621697"/>
      </g>
     </g>
     <g id="text_8">
      <!-- $6$ -->
      <g transform="translate(120.646060951 292.760485144)scale(0.2 -0.2)">
       <use transform="scale(0.9962640099626402)" xlink:href="#CMR17-54"/>
      </g>
     </g>
    </g>
    <g id="xtick_12">
     <g id="line2d_39">
      <g>
       <use style="stroke:#ffffff;stroke-width:1.5;" x="182.753222364" xlink:href="#m0cb7609bc0" y="274.923488383"/>
      </g>
     </g>
     <g id="line2d_40">
      <g>
       <use style="stroke:#ffffff;stroke-width:1.5;" x="182.753222364" xlink:href="#md7feda140e" y="160.46621697"/>
      </g>
     </g>
     <g id="text_9">
      <!-- $8$ -->
      <defs>
       <path d="M 27.203125 35.375 
C 33.5 38.546875 39.90625 43.328125 39.90625 50.984375 
C 39.90625 60.015625 31.09375 65.296875 23 65.296875 
C 13.90625 65.296875 5.90625 58.734375 5.90625 49.6875 
C 5.90625 47.203125 6.5 42.921875 10.40625 39.140625 
C 11.40625 38.15625 15.59375 35.171875 18.296875 33.28125 
C 13.796875 30.984375 3.296875 25.53125 3.296875 14.59375 
C 3.296875 4.359375 13.09375 -2 22.796875 -2 
C 33.5 -2 42.5 5.65625 42.5 15.78125 
C 42.5 24.84375 36.40625 29.015625 32.40625 31.703125 
z
M 14.09375 44.09375 
C 13.296875 44.59375 9.296875 47.671875 9.296875 52.359375 
C 9.296875 58.421875 15.59375 63 22.796875 63 
C 30.703125 63 36.5 57.4375 36.5 50.96875 
C 36.5 41.703125 26.09375 36.421875 25.59375 36.421875 
C 25.5 36.421875 25.40625 36.421875 24.59375 37.03125 
z
M 32.5 23.734375 
C 34 22.640625 38.796875 19.375 38.796875 13.296875 
C 38.796875 5.953125 31.40625 0.390625 23 0.390625 
C 13.90625 0.390625 7 6.84375 7 14.6875 
C 7 22.546875 13.09375 29.09375 20 32.1875 
z
" id="CMR17-56"/>
      </defs>
      <g transform="translate(178.184174653 292.760485144)scale(0.2 -0.2)">
       <use transform="scale(0.9962640099626402)" xlink:href="#CMR17-56"/>
      </g>
     </g>
    </g>
    <g id="xtick_13">
     <g id="line2d_41">
      <g>
       <use style="stroke:#ffffff;stroke-width:1.5;" x="240.291336066" xlink:href="#m0cb7609bc0" y="274.923488383"/>
      </g>
     </g>
     <g id="line2d_42">
      <g>
       <use style="stroke:#ffffff;stroke-width:1.5;" x="240.291336066" xlink:href="#md7feda140e" y="160.46621697"/>
      </g>
     </g>
     <g id="text_10">
      <!-- $10$ -->
      <g transform="translate(231.153240643 292.760485144)scale(0.2 -0.2)">
       <use transform="scale(0.9962640099626402)" xlink:href="#CMR17-49"/>
       <use transform="translate(45.69047711706103 0.0)scale(0.9962640099626402)" xlink:href="#CMR17-48"/>
      </g>
     </g>
    </g>
    <g id="xtick_14">
     <g id="line2d_43">
      <g>
       <use style="stroke:#ffffff;stroke-width:1.5;" x="297.829449768" xlink:href="#m0cb7609bc0" y="274.923488383"/>
      </g>
     </g>
     <g id="line2d_44">
      <g>
       <use style="stroke:#ffffff;stroke-width:1.5;" x="297.829449768" xlink:href="#md7feda140e" y="160.46621697"/>
      </g>
     </g>
     <g id="text_11">
      <!-- $12$ -->
      <g transform="translate(288.691354345 292.760485144)scale(0.2 -0.2)">
       <use transform="scale(0.9962640099626402)" xlink:href="#CMR17-49"/>
       <use transform="translate(45.69047711706103 0.0)scale(0.9962640099626402)" xlink:href="#CMR17-50"/>
      </g>
     </g>
    </g>
    <g id="xtick_15">
     <g id="line2d_45">
      <g>
       <use style="stroke:#ffffff;stroke-width:1.5;" x="355.36756347" xlink:href="#m0cb7609bc0" y="274.923488383"/>
      </g>
     </g>
     <g id="line2d_46">
      <g>
       <use style="stroke:#ffffff;stroke-width:1.5;" x="355.36756347" xlink:href="#md7feda140e" y="160.46621697"/>
      </g>
     </g>
     <g id="text_12">
      <!-- $14$ -->
      <g transform="translate(346.229468047 292.760485144)scale(0.2 -0.2)">
       <use transform="scale(0.9962640099626402)" xlink:href="#CMR17-49"/>
       <use transform="translate(45.69047711706103 0.0)scale(0.9962640099626402)" xlink:href="#CMR17-52"/>
      </g>
     </g>
    </g>
    <g id="xtick_16">
     <g id="line2d_47">
      <g>
       <use style="stroke:#ffffff;stroke-width:1.5;" x="412.905677173" xlink:href="#m0cb7609bc0" y="274.923488383"/>
      </g>
     </g>
     <g id="line2d_48">
      <g>
       <use style="stroke:#ffffff;stroke-width:1.5;" x="412.905677173" xlink:href="#md7feda140e" y="160.46621697"/>
      </g>
     </g>
     <g id="text_13">
      <!-- $16$ -->
      <g transform="translate(403.767581749 292.760485144)scale(0.2 -0.2)">
       <use transform="scale(0.9962640099626402)" xlink:href="#CMR17-49"/>
       <use transform="translate(45.69047711706103 0.0)scale(0.9962640099626402)" xlink:href="#CMR17-54"/>
      </g>
     </g>
    </g>
    <g id="xtick_17">
     <g id="line2d_49">
      <g>
       <use style="stroke:#ffffff;stroke-width:1.5;" x="470.443790875" xlink:href="#m0cb7609bc0" y="274.923488383"/>
      </g>
     </g>
     <g id="line2d_50">
      <g>
       <use style="stroke:#ffffff;stroke-width:1.5;" x="470.443790875" xlink:href="#md7feda140e" y="160.46621697"/>
      </g>
     </g>
     <g id="text_14">
      <!-- $18$ -->
      <g transform="translate(461.305695451 292.760485144)scale(0.2 -0.2)">
       <use transform="scale(0.9962640099626402)" xlink:href="#CMR17-49"/>
       <use transform="translate(45.69047711706103 0.0)scale(0.9962640099626402)" xlink:href="#CMR17-56"/>
      </g>
     </g>
    </g>
    <g id="xtick_18">
     <g id="line2d_51">
      <g>
       <use style="stroke:#ffffff;stroke-width:1.5;" x="527.981904577" xlink:href="#m0cb7609bc0" y="274.923488383"/>
      </g>
     </g>
     <g id="line2d_52">
      <g>
       <use style="stroke:#ffffff;stroke-width:1.5;" x="527.981904577" xlink:href="#md7feda140e" y="160.46621697"/>
      </g>
     </g>
     <g id="text_15">
      <!-- $20$ -->
      <g transform="translate(518.843809153 292.760485144)scale(0.2 -0.2)">
       <use transform="scale(0.9962640099626402)" xlink:href="#CMR17-50"/>
       <use transform="translate(45.69047711706103 0.0)scale(0.9962640099626402)" xlink:href="#CMR17-48"/>
      </g>
     </g>
    </g>
    <g id="text_16">
     <!-- $q$ -->
     <defs>
      <path d="M 44.09375 43.109375 
C 44.09375 43.59375 43.703125 44 43.203125 44 
C 42.40625 44 38.5 40.390625 36.59375 36.90625 
C 34.796875 41.34375 31.703125 44 27.40625 44 
C 16.09375 44 3.90625 29.4375 3.90625 14.671875 
C 3.90625 4.796875 9.703125 -1 16.5 -1 
C 21.796875 -1 26.203125 3.015625 28.296875 5.296875 
L 28.40625 5.203125 
L 24.59375 -9.609375 
L 23.703125 -13.15625 
C 22.796875 -16.109375 21.296875 -16.109375 16.59375 -16.109375 
C 15.5 -16.109375 14.5 -16.109375 14.5 -18 
C 14.5 -18.703125 15.09375 -19 15.796875 -19 
C 17.203125 -19 19 -19 20.40625 -19 
L 30.59375 -19 
C 32.09375 -19 33.796875 -19 35.296875 -19 
C 35.90625 -19 37.09375 -19 37.09375 -17.109375 
C 37.09375 -16.109375 36.296875 -16.109375 34.796875 -16.109375 
C 30.09375 -16.109375 29.796875 -15.40625 29.796875 -14.609375 
C 29.796875 -14.125 29.90625 -14.03125 30.203125 -12.734375 
z
M 30 11.90625 
C 29.5 10.1875 29.5 10 28.09375 8.09375 
C 25.90625 5.296875 21.5 1 16.796875 1 
C 12.703125 1 10.40625 4.703125 10.40625 10.59375 
C 10.40625 16.09375 13.5 27.296875 15.40625 31.5 
C 18.796875 38.5 23.5 42.109375 27.40625 42.109375 
C 34 42.109375 35.296875 33.90625 35.296875 33.109375 
C 35.296875 33.015625 35 31.6875 34.90625 31.5 
z
" id="CMMI12-113"/>
     </defs>
     <g transform="translate(293.071763139 316.85681215)scale(0.22 -0.22)">
      <use transform="scale(0.9962640099626402)" xlink:href="#CMMI12-113"/>
     </g>
    </g>
   </g>
   <g id="matplotlib.axis_4">
    <g id="ytick_6">
     <g id="line2d_53">
      <g>
       <use style="stroke:#ffffff;stroke-width:1.5;" x="67.6769949603" xlink:href="#mac348b1ae3" y="274.923488383"/>
      </g>
     </g>
     <g id="line2d_54">
      <g>
       <use style="stroke:#ffffff;stroke-width:1.5;" x="527.981904577" xlink:href="#m0ba013e189" y="274.923488383"/>
      </g>
     </g>
     <g id="text_17">
      <!-- $-1$ -->
      <g transform="translate(39.0414120875 279.904169958)scale(0.2 -0.2)">
       <use transform="scale(0.9962640099626402)" xlink:href="#CMSY10-0"/>
       <use transform="translate(77.4874676506071 0.0)scale(0.9962640099626402)" xlink:href="#CMR17-49"/>
      </g>
     </g>
    </g>
    <g id="ytick_7">
     <g id="line2d_55">
      <g>
       <use style="stroke:#ffffff;stroke-width:1.5;" x="67.6769949603" xlink:href="#mac348b1ae3" y="246.30917053"/>
      </g>
     </g>
     <g id="line2d_56">
      <g>
       <use style="stroke:#ffffff;stroke-width:1.5;" x="527.981904577" xlink:href="#m0ba013e189" y="246.30917053"/>
      </g>
     </g>
     <g id="text_18">
      <!-- $0$ -->
      <g transform="translate(54.5388995369 251.289852105)scale(0.2 -0.2)">
       <use transform="scale(0.9962640099626402)" xlink:href="#CMR17-48"/>
      </g>
     </g>
    </g>
    <g id="ytick_8">
     <g id="line2d_57">
      <g>
       <use style="stroke:#ffffff;stroke-width:1.5;" x="67.6769949603" xlink:href="#mac348b1ae3" y="217.694852676"/>
      </g>
     </g>
     <g id="line2d_58">
      <g>
       <use style="stroke:#ffffff;stroke-width:1.5;" x="527.981904577" xlink:href="#m0ba013e189" y="217.694852676"/>
      </g>
     </g>
     <g id="text_19">
      <!-- $1$ -->
      <g transform="translate(54.5388995369 222.675534251)scale(0.2 -0.2)">
       <use transform="scale(0.9962640099626402)" xlink:href="#CMR17-49"/>
      </g>
     </g>
    </g>
    <g id="ytick_9">
     <g id="line2d_59">
      <g>
       <use style="stroke:#ffffff;stroke-width:1.5;" x="67.6769949603" xlink:href="#mac348b1ae3" y="189.080534823"/>
      </g>
     </g>
     <g id="line2d_60">
      <g>
       <use style="stroke:#ffffff;stroke-width:1.5;" x="527.981904577" xlink:href="#m0ba013e189" y="189.080534823"/>
      </g>
     </g>
     <g id="text_20">
      <!-- $2$ -->
      <g transform="translate(54.5388995369 194.061216398)scale(0.2 -0.2)">
       <use transform="scale(0.9962640099626402)" xlink:href="#CMR17-50"/>
      </g>
     </g>
    </g>
    <g id="ytick_10">
     <g id="line2d_61">
      <g>
       <use style="stroke:#ffffff;stroke-width:1.5;" x="67.6769949603" xlink:href="#mac348b1ae3" y="160.46621697"/>
      </g>
     </g>
     <g id="line2d_62">
      <g>
       <use style="stroke:#ffffff;stroke-width:1.5;" x="527.981904577" xlink:href="#m0ba013e189" y="160.46621697"/>
      </g>
     </g>
     <g id="text_21">
      <!-- $3$ -->
      <g transform="translate(54.5388995369 165.446898545)scale(0.2 -0.2)">
       <use transform="scale(0.9962640099626402)" xlink:href="#CMR17-51"/>
      </g>
     </g>
    </g>
    <g id="text_22">
     <!-- $\eta_{lev}$ -->
     <defs>
      <path d="M 25.40625 66.515625 
C 25.5 66.90625 25.703125 67.5 25.703125 68 
C 25.703125 69 24.703125 69 24.5 69 
C 24.40625 69 20.796875 68.640625 19 68.390625 
C 17.296875 68.390625 15.796875 68.09375 14 68.09375 
C 11.59375 67.890625 10.90625 67.796875 10.90625 66 
C 10.90625 65 11.90625 65 12.90625 65 
C 18 65 18 64.09375 18 63.109375 
C 18 62.71875 18 62.515625 17.5 60.734375 
L 5.09375 11.421875 
C 4.796875 10.328125 4.59375 9.53125 4.59375 7.953125 
C 4.59375 2.984375 8.296875 -1 13.40625 -1 
C 16.703125 -1 18.90625 1.1875 20.5 4.28125 
C 22.203125 7.546875 23.59375 13.8125 23.59375 14.203125 
C 23.59375 14.703125 23.203125 15.109375 22.59375 15.109375 
C 21.703125 15.109375 21.59375 14.609375 21.203125 13.125 
C 19.40625 6.265625 17.59375 1 13.59375 1 
C 10.59375 1 10.59375 4.171875 10.59375 5.578125 
C 10.59375 5.96875 10.59375 8.046875 11.296875 10.84375 
z
" id="CMMI12-108"/>
      <path d="M 45.703125 37.328125 
C 45.703125 43.609375 42.5 44 41.703125 44 
C 39.296875 44 37.09375 41.609375 37.09375 39.609375 
C 37.09375 38.421875 37.796875 37.71875 38.203125 37.328125 
C 39.203125 36.421875 41.796875 33.734375 41.796875 28.546875 
C 41.796875 24.34375 35.796875 1 23.796875 1 
C 17.703125 1 16.5 6.09375 16.5 9.78125 
C 16.5 14.765625 18.796875 21.75 21.5 28.9375 
C 23.09375 33.03125 23.5 34.03125 23.5 36.015625 
C 23.5 40.21875 20.5 44 15.59375 44 
C 6.40625 44 2.703125 29.53125 2.703125 28.734375 
C 2.703125 28.34375 3.09375 27.84375 3.796875 27.84375 
C 4.703125 27.84375 4.796875 28.234375 5.203125 29.640625 
C 7.59375 38.21875 11.5 42.015625 15.296875 42.015625 
C 16.203125 42.015625 17.90625 42.015625 17.90625 38.71875 
C 17.90625 36.125 16.796875 33.234375 15.296875 29.4375 
C 10.5 16.671875 10.5 13.578125 10.5 11.171875 
C 10.5 8.984375 10.796875 4.890625 13.90625 2.09375 
C 17.5 -1 22.5 -1 23.40625 -1 
C 40 -1 45.703125 31.625 45.703125 37.328125 
" id="CMMI12-118"/>
     </defs>
     <g transform="translate(29.7782242372 232.507834269)rotate(-90.0)scale(0.22 -0.22)">
      <use transform="translate(0.0 14.943914544092467)scale(0.9962640099626402)" xlink:href="#CMMI12-17"/>
      <use transform="translate(48.12922305514478 0.0)scale(0.6973817666173724)" xlink:href="#CMMI12-108"/>
      <use transform="translate(70.0030069125545 0.0)scale(0.6973817666173724)" xlink:href="#CMMI12-101"/>
      <use transform="translate(101.65126320730855 0.0)scale(0.6973817666173724)" xlink:href="#CMMI12-118"/>
     </g>
    </g>
   </g>
  </g>
 </g>
 <defs>
  <clipPath id="p7d9f851c5b">
   <rect height="114.457271414" width="460.304909616" x="67.6769949603" y="8.85631518524"/>
  </clipPath>
  <clipPath id="p4861a06dfb">
   <rect height="114.457271414" width="460.304909616" x="67.6769949603" y="160.46621697"/>
  </clipPath>
 </defs>
</svg>
